# xmcd
# 
# Track frame offsets:
#     150
#     17015
#     34297
#     49247
#     64320
#     78140
#     98077
#     113402
#     126810
#     144230
# 
# Disc length: 2136
# 
# Revision: 4
# Processed by: cddbd v1.5.2PL0 Copyright (c) Steve Scherf et al.
# Submitted via: fre:ac v1.0.31
# 
DISCID=7a08560a
DTITLE=Charlie Daniels - Simple Man
DYEAR=1989
DGENRE=Rock/Pop
TTITLE0=(What This World Needs Is) A Few More Rednecks
TTITLE1=Was it 26
TTITLE2=Oh Atlanta
TTITLE3=Midnight Wind
TTITLE4=Saturday Night Down South
TTITLE5=Play Me Some Fiddle
TTITLE6=Simple Man
TTITLE7=Old Rock`N Roller
TTITLE8=Mister DJ
TTITLE9=It's My Life
EXTD=Corrected to match cover`s exact wording YEAR: 1989
EXTT0=
EXTT1=
EXTT2=
EXTT3=
EXTT4=
EXTT5=
EXTT6=
EXTT7=
EXTT8=
EXTT9=
PLAYORDER=
